<svg xmlns="http://www.w3.org/2000/svg" width="256" height="256" viewBox="0 0 100 100"><rect width="100" height="100" rx="20" fill="#000000"></rect><path fill="#fff" d="M58.91 32.95L58.91 32.95Q58.91 30.64 56.98 28.99Q55.06 27.34 52.42 27.34L52.42 27.34Q47.14 27.34 43.73 33.34Q40.32 39.33 40.32 46.92L40.32 46.92Q40.32 52.75 42.52 57.43Q44.72 62.10 48.90 64.85Q53.08 67.60 58.58 67.60L58.58 67.60Q62.65 67.60 66.39 66.01Q70.13 64.41 72.44 62.48Q74.75 60.56 77.22 58.97Q79.70 57.37 81.57 57.37L81.57 57.37Q83.99 57.37 85.75 59.30Q87.51 61.22 87.51 63.31L87.51 63.31Q87.51 65.62 86.13 68.70Q84.76 71.78 81.79 75.25Q78.82 78.71 74.86 81.63Q70.90 84.54 65.02 86.47Q59.13 88.39 52.64 88.39L52.64 88.39Q44.06 88.39 36.74 85.81Q29.43 83.22 24.04 78.44Q18.65 73.65 15.57 66.39Q12.49 59.13 12.49 50.11L12.49 50.11Q12.49 32.29 23.16 21.95Q33.83 11.61 51.10 11.61L51.10 11.61Q59.90 11.61 67.38 14.58Q74.86 17.55 79.26 22.83Q83.66 28.11 83.66 34.38L83.66 34.38Q83.66 41.64 78.82 47.53Q73.98 53.41 66.28 53.41L66.28 53.41Q61.88 53.41 58.36 50.99Q54.84 48.57 54.84 44.06L54.84 44.06Q54.84 41.97 56.88 38.23Q58.91 34.49 58.91 32.95Z"></path></svg>